<?xml version="1.0" encoding="utf-8"?>
<!-- Generator: Adobe Illustrator 27.5.0, SVG Export Plug-In . SVG Version: 6.00 Build 0)  -->
<svg version="1.1" xmlns="http://www.w3.org/2000/svg" xmlns:xlink="http://www.w3.org/1999/xlink" x="0px" y="0px"
	 viewBox="0 0 1122 1122" style="enable-background:new 0 0 1122 1122;" xml:space="preserve">
<g id="BG">
	<rect style="fill:#FFFFFF;" width="1122" height="1122"/>
</g>
<g id="Object">
	<g>
		<g>
			<defs>
				<path id="SVGID_1_" d="M731.587,281.327c-54.896-27.762-121.367-36.812-180.415-32.929
					c-91.766,6.035-183.869,45.887-240.158,120.585c-8.483,11.256-16.069,23.182-22.664,35.639
					c-29.545,55.807-38.155,120.91-33.866,183.909c3.989,58.599,19.388,117.783,53.813,165.372
					c118.674,164.05,397.006,160.555,507.922-9.768c71.419-109.672,69.505-285.592-4.319-394.217
					C791.542,319.962,763.523,297.478,731.587,281.327z"/>
			</defs>
			<use xlink:href="#SVGID_1_"  style="overflow:visible;fill:#F5E3BC;"/>
			<clipPath id="SVGID_00000036251259657629618150000009501031576458100123_">
				<use xlink:href="#SVGID_1_"  style="overflow:visible;"/>
			</clipPath>
			<g style="clip-path:url(#SVGID_00000036251259657629618150000009501031576458100123_);">
				<path style="fill:#D1AD82;" d="M416.808,931.259c1.198-0.815,64.398,6.148,131.346,9.361
					c66.949,3.214,104.483-10.32,104.483-10.32s-1.659-136.569-15.312-169.171c-13.653-32.602-22.78-34.198-22.78-34.198
					l-187.533,7.907c0,0-10.223,42.66-8.658,56.814c1.565,14.153-8.032,76.055-9.12,88.69c-1.088,12.635-0.316,49.549-0.316,49.549
					L416.808,931.259z"/>
				<path style="fill:#F4ECE4;" d="M634.311,517.528c10.891-15.71,14.964-35.98,10.986-54.678
					c0.531,2.495-11.307,10.764-13.197,12.342c-4.16,3.475-10.859,7.942-13.057,13.094c-2.36,5.532,4.691,8.73,7.806,12.537
					C630.755,505.597,633.408,511.418,634.311,517.528z"/>
				<path style="fill:#F4ECE4;" d="M387.489,492.667c3.314,11.093,7.511,22.044,13.961,31.659c1.421-3.553,2.843-7.106,4.265-10.659
					c1.437-3.593,3.258-7.571,6.901-8.878c2.08-0.746,5.141-1.194,5.095-3.403c-0.013-0.634-0.335-1.215-0.653-1.764
					c-6.183-10.675-14.004-20.397-23.094-28.737c-1.162-1.066-5.266-5.822-6.959-5.451c-2.147,0.47-2.349,5.813-2.496,7.613
					C383.967,479.682,385.604,486.358,387.489,492.667z"/>
				<path style="fill:#D1AD82;" d="M432.615,490.513c-3.115-3.875-6.514-7.523-10.159-10.904
					c-7.567-7.017-16.143-12.841-24.71-18.595c-1.855-1.246-3.837-2.533-6.07-2.634c-2.233-0.101-4.701,1.51-4.661,3.744
					c0.038,2.13,2.121,3.549,3.904,4.716c8.444,5.527,14.894,13.468,20.422,21.798c1.733,2.611,4.534,10.007,7.978,10.387
					C421.262,499.238,432.398,490.244,432.615,490.513z"/>
				<path style="fill:#D1AD82;" d="M614.718,490.841c7.783-11.125,17.859-20.638,29.412-27.77c4.001-2.469-1.74-4.154-3.995-5.146
					c-1.029-0.453-2.214-0.205-3.309,0.05c-5.396,1.256-10.877,2.544-15.702,5.268c-2.706,1.527-5.146,3.475-7.574,5.413
					c-4.243,3.388-8.535,6.723-12.733,10.167c-3.881,3.185-3.407,4.161,0.701,6.406
					C605.739,487.536,610.451,488.712,614.718,490.841z"/>
				<path style="fill:#F9F5F2;" d="M511.566,727.456c-1.343-13.144-4.723-25.44-8.195-38.141
					c-3.284-12.011-4.263-24.503-7.753-36.438c-3.242-11.092-7.417-21.923-11.036-32.897c-6.746-20.451-13.729-41.254-30.666-55.665
					c-16.356-13.917-40.469-23.766-60.501-12.911c-1.747,12.062-7.565,38.732-8.566,52.109c-1.101,14.695-6.302,34.111,3.207,46.762
					c-3.073,1.378,35.234,40.167,57.608,57.424c22.373,17.257,52.809,32.196,64.081,33.624c1.163,0.147,2.587,0.062,4.201-0.199
					C513.365,736.308,511.954,731.252,511.566,727.456z"/>
				<path style="fill:#F9F5F2;" d="M655.025,593.092c-4.857-14.597-10.943-33.734-15.224-48.581
					c-3.502,0.087-7.357-0.766-10.205-1.102c-10.235-1.207-18.968-0.604-28.517,4.046c-19.6,9.543-37.96,27.328-44.571,48.312
					c-3.234,10.265-4.463,20.93-6.307,31.491c-2.338,13.391-5.521,26.615-7.99,39.98c-2.39,12.939-3.738,25.858-6.914,38.656
					c-2.493,10.044-5.16,20.035-6.181,30.286c14.454-6.106,32.197-16.134,42.185-22.014c15.636-9.204,55.32-36.542,62.969-47.998
					c7.65-11.457,16.838-22.738,20.754-31.727C658.94,625.452,660.646,609.984,655.025,593.092z"/>
				<path style="fill:#D1AD82;" d="M531.935,707.641c3.418-13.623,4.997-27.376,7.543-41.157c2.469-13.365,5.652-26.59,7.99-39.98
					c2.015-11.539,3.312-23.228,7.248-34.332c6.719-18.958,22.412-33.638,39.275-44.023c8.034-4.948,17.585-8.739,27.167-8.485
					c3.907,0.104,7.826,0.881,11.709,1.284c1.441,0.15,3.848,0.608,6.121,0.714c-0.371-1.31-0.731-2.594-1.066-3.814
					c-4.209-15.363,1.147-28.403-12.422-35.977c-13.568-7.574-25.102-16.483-36.738-19.308
					c-11.635-2.825-125.614-0.133-136.842,2.807c-11.228,2.94-25.82,4.646-33.479,15.141c-7.595,10.407-23.403,37.499-24.589,47.498
					c14.98-7.206,32.171-4.011,46.796,3.833c16.094,8.631,28.197,21.933,35.904,38.418c8.114,17.357,13.351,36.338,19.444,54.472
					c3.695,10.998,5.169,22.084,7.495,33.397c2.318,11.273,6.25,22.159,8.661,33.415c1.828,8.533,2.423,17.257,3.599,25.893
					c0.14,1.025,0.308,2.115,0.465,3.23c2.901-0.686,6.291-1.838,9.951-3.287C527.014,727.313,529.464,717.492,531.935,707.641z"/>
				<path style="fill:#534741;" d="M506.39,727.904c-0.147-0.959-0.164-2.006,0.358-2.824c0.764-1.196,2.363-1.475,3.775-1.616
					c5.938-0.593,11.923-0.726,17.882-0.398c1.118,0.061,2.297,0.16,3.217,0.799c2.09,1.451,1.659,4.686,0.524,6.963
					c-2.427,4.867-8.823,10.895-14.838,9.691C512.328,739.523,507.11,732.62,506.39,727.904z"/>
				<path style="fill:#D1AD82;" d="M826.435,676.565c-3.251,4.623-8.18,8.038-13.65,9.459c-2.622-14.315-6.193-28.457-10.679-42.301
					c-5.865,10.484-13.164,20.164-21.629,28.687c0.46-11.575,0.242-25.902-4.206-36.765c-4.752,3.96-8.417,11.367-12.065,16.48
					c-3.908,5.476-7.816,10.953-11.724,16.429c5.636-12.432,6.496-26.96,2.365-39.97c-7.725,4.996-16.139,6.372-23.489,12.095
					c-6.535,5.088-12.451,10.963-17.636,17.42c-10.375,12.92-17.844,28.185-21.6,44.328c-5.51,23.683,2.423,47.234,6.742,70.391
					c3.517,18.855,2.871,37.503-4.786,55.285c-6.379,14.814-25.696,30.684-39.74,38.24c-0.356,8.541-0.712,17.081-1.069,25.622
					c-0.134,3.224,33.486,0.995,36.588,0.491c12.984-2.109,25.891-6.562,37.148-13.425c22.132-13.493,41.229-27.045,58.525-46.881
					c8.279-9.495,16.369-19.302,22.235-30.451c5.972-11.351,6.155-23.198,10.258-34.903c4.021-11.47,7.246-22.414,9.384-34.512
					C830.679,713.766,832.972,694.197,826.435,676.565z"/>
				<path style="fill:#FFFFFF;" d="M781.917,596.239c-4.927,8.848-12.334,16.063-20.188,22.456
					c-2.201,1.791-4.516,3.614-5.783,6.154c-1.394,2.794-1.328,6.063-1.23,9.184c0.325,10.378,0.649,20.757,0.974,31.135
					c9.108-12.273,16.609-25.737,22.252-39.94c4.342,12.376,6.653,25.462,6.811,38.576c9.004-9.489,16.4-20.5,21.781-32.424
					c6.396,14.594,9.243,30.729,8.23,46.631c3.987,0.481,7.744-2.55,9.355-6.228c1.611-3.678,1.532-7.852,1.264-11.859
					c-1.357-20.298-6.983-40.277-16.23-58.388c-3.188-6.244-9.522-21.667-16.184-24.714
					C785.091,573.219,785.357,590.062,781.917,596.239z"/>
				<g>
					<g>
						<g>
							<g>
								<path d="M522.045,742.752c21.331-12.443,43.252-23.835,64.321-36.735c20.939-12.82,41.776-26.662,56.924-46.294
									c9.223-11.953,16.286-25.178,17.511-40.455c1.266-15.783-3.092-31.428-7.897-46.293c-2.554-7.904-5.319-15.74-7.738-23.687
									c-2.267-7.449-3.911-15.031-5.813-22.575c-3.381-13.409-8.898-25.596-20.355-33.923
									c-10.544-7.663-23.668-11.129-36.395-12.94c-15.335-2.182-31.012-2.451-46.477-2.479
									c-17.627-0.032-35.256,0.792-52.804,2.469c-15.53,1.485-31.904,2.761-46.671,8.137
									c-13.415,4.885-23.762,13.78-30.753,26.205c-7.464,13.265-11.628,28.488-15.274,43.166
									c-4.169,16.781-6.961,33.91-8.36,51.145c-1.263,15.567-2.533,32.363,5.412,46.485c6.78,12.052,17.964,21.525,27.769,31.066
									c8.332,8.108,16.851,16.064,26.03,23.214c17.552,13.672,37.337,22.995,58.758,28.875c6.775,1.86,13.628,3.413,20.515,4.79
									c2.114,0.423,3.019-2.819,0.894-3.244c-22.938-4.586-45.491-11.388-65.364-24.028
									c-18.988-12.077-34.931-28.346-50.766-44.163c-5.133-5.127-10.192-10.396-13.997-16.617
									c-4.186-6.845-6.14-14.453-6.621-22.419c-0.979-16.214,1.177-33.055,3.792-49.03c2.648-16.17,6.507-32.191,11.69-47.739
									c4.415-13.242,10.399-26.776,21.464-35.816c11.128-9.091,25.831-12.156,39.708-14.13
									c16.677-2.372,33.519-3.788,50.346-4.508c17.244-0.738,34.525-0.655,51.76,0.253c12.813,0.675,25.774,1.997,37.965,6.226
									c12.143,4.212,22.855,11.727,28.77,23.393c3.365,6.636,5.141,13.946,6.841,21.147c1.772,7.508,3.699,14.926,6.047,22.278
									c4.744,14.855,10.466,29.541,13.099,44.974c2.636,15.449,1.028,30.722-6.624,44.557
									c-12.191,22.041-31.71,37.488-52.414,51.046c-20.695,13.552-42.473,25.328-64.051,37.387
									c-4.332,2.421-8.656,4.858-12.943,7.358C518.478,740.937,520.169,743.846,522.045,742.752z"/>
							</g>
							<g>
								<path d="M394.515,552.268c24.874-14.331,55.648,1.144,70.913,22.33c8.952,12.424,14.531,26.847,18.863,41.432
									c4.755,16.008,8.446,32.35,12.486,48.549c4.956,19.871,9.912,39.743,14.868,59.614c0.524,2.099,3.769,1.21,3.244-0.894
									c-4.641-18.607-9.281-37.214-13.922-55.82c-4.317-17.31-8.247-34.779-13.3-51.894
									c-4.426-14.993-10.136-29.917-19.335-42.684c-8.179-11.352-19.069-20.28-32.155-25.388
									c-14.042-5.482-30.061-5.811-43.361,1.851C390.941,550.443,392.634,553.351,394.515,552.268L394.515,552.268z"/>
							</g>
							<g>
								<path d="M641.505,542.766c-24.839-12.761-54.887,1.017-70.628,21.766c-9.625,12.688-15.407,27.791-19.506,43.056
									c-4.514,16.81-7.453,34.057-10.846,51.117c-4.213,21.182-8.425,42.365-12.638,63.547c-0.42,2.114,2.821,3.019,3.244,0.894
									c3.559-17.895,7.118-35.791,10.676-53.686c3.343-16.809,6.406-33.704,10.206-50.417
									c6.405-28.17,17.359-58.076,44.832-71.818c13.345-6.675,29.355-8.544,42.961-1.554
									C641.73,546.659,643.434,543.757,641.505,542.766L641.505,542.766z"/>
							</g>
							<g>
								<path d="M513.997,738.418c-2.222-1.608-4.049-3.664-5.315-6.104c-0.896-1.729-2.625-5.681-0.414-7.132
									c1.015-0.667,3.179-0.369,4.333-0.399c1.644-0.043,3.288-0.086,4.933-0.13c3.106-0.081,6.212-0.167,9.317-0.245
									c2.518-0.063,8.151-0.221,7.041,3.943c-0.607,2.276-4.087,4.864-5.74,6.532c-1.862,1.879-3.964,3.926-6.582,4.674
									c-3.35,0.957-6.769-0.341-9.903-1.478c-2.039-0.739-2.917,2.51-0.894,3.244c4.117,1.493,8.418,2.782,12.693,1.118
									c3.756-1.461,6.536-4.62,9.263-7.45c2.435-2.526,5.404-5.071,4.429-8.956c-0.879-3.501-4.098-4.862-7.415-5.026
									c-4.944-0.243-10.001,0.221-14.95,0.35c-3.123,0.082-7.694-0.606-9.791,2.353c-4.172,5.89,2.792,14.349,7.296,17.609
									C514.055,742.594,515.736,739.677,513.997,738.418L513.997,738.418z"/>
							</g>
							<g>
								<path d="M432.254,489.573c-5.411-6.994-11.564-13.376-18.413-18.975c-3.23-2.641-6.593-5.121-10.083-7.408
									c-3.405-2.232-7.453-5.359-11.475-6.282c-7.987-1.831-8.922,10.833-9.384,15.926c-0.789,8.688,0.439,17.522,2.967,25.844
									c2.953,9.719,7.657,18.832,13.413,27.176c1.221,1.771,4.139,0.09,2.905-1.698c-11.165-16.184-19.062-36.517-15.197-56.412
									c0.382-1.967,0.723-5.54,2.364-6.94c2.094-1.785,5.634,0.986,7.569,2.112c4.428,2.577,8.692,5.449,12.727,8.607
									c7.575,5.928,14.344,12.824,20.227,20.429C431.198,493.662,433.563,491.266,432.254,489.573L432.254,489.573z"/>
							</g>
							<g>
								<path d="M384.732,465.206c14.121,8.822,25.184,21.747,31.833,37.003c0.863,1.98,3.762,0.269,2.905-1.698
									c-6.872-15.764-18.463-29.103-33.04-38.209C384.588,461.151,382.898,464.061,384.732,465.206L384.732,465.206z"/>
							</g>
							<g>
								<path d="M596.319,484.467c6.145-6.845,13.495-12.423,21.768-16.456c4.185-2.04,8.575-3.646,13.081-4.813
									c2.322-0.602,4.676-1.089,7.048-1.447c2.129-0.321,5.429-1.175,7.297,0.204c1.817,1.342,1.865,4.771,2.128,6.879
									c0.279,2.23,0.418,4.479,0.442,6.726c0.049,4.654-0.429,9.294-1.434,13.838c-2.049,9.264-6.18,17.974-12.163,25.344
									c-1.353,1.667,1.013,4.061,2.379,2.379c10.428-12.846,15.766-29.514,14.37-46.05c-0.279-3.303-0.352-7.854-2.353-10.631
									c-2.063-2.862-5.745-2.666-8.883-2.293c-8.208,0.974-16.181,3.335-23.609,6.96c-8.5,4.148-16.134,9.947-22.449,16.982
									C592.497,483.696,594.869,486.083,596.319,484.467L596.319,484.467z"/>
							</g>
							<g>
								<path d="M644.862,460.579c-13.047,7.113-23.816,17.84-30.982,30.858c-1.044,1.898,1.86,3.597,2.905,1.698
									c6.906-12.546,17.201-22.797,29.775-29.651C648.461,462.448,646.765,459.542,644.862,460.579L644.862,460.579z"/>
							</g>
							<g>
								<path d="M428.189,658.318c2.165,0,2.168-3.364,0-3.364C426.025,654.954,426.021,658.318,428.189,658.318L428.189,658.318z"
									/>
							</g>
							<g>
								<path d="M453.981,658.878c-0.187,0-0.374,0-0.561,0c-0.88,0-1.723,0.773-1.682,1.682c0.041,0.911,0.739,1.682,1.682,1.682
									c0.187,0,0.374,0,0.561,0c0.88,0,1.723-0.774,1.682-1.682C455.622,659.649,454.924,658.878,453.981,658.878L453.981,658.878
									z"/>
							</g>
							<g>
								<path d="M446.692,677.942c0,0.187,0,0.374,0,0.561c0,0.88,0.774,1.723,1.682,1.682c0.911-0.041,1.682-0.739,1.682-1.682
									c0-0.187,0-0.374,0-0.561c0-0.88-0.773-1.723-1.682-1.682C447.463,676.3,446.692,676.999,446.692,677.942L446.692,677.942z"
									/>
							</g>
							<g>
								<path d="M439.403,655.514c0,0.374,0,0.748,0,1.121c0,0.88,0.774,1.723,1.682,1.682c0.911-0.041,1.682-0.739,1.682-1.682
									c0-0.374,0-0.747,0-1.121c0-0.88-0.774-1.723-1.682-1.682C440.174,653.873,439.403,654.571,439.403,655.514L439.403,655.514
									z"/>
							</g>
							<g>
								<path d="M425.946,670.653c2.165,0,2.168-3.364,0-3.364C423.782,667.289,423.778,670.653,425.946,670.653L425.946,670.653z"
									/>
							</g>
							<g>
								<path d="M599.198,645.422c2.165,0,2.168-3.364,0-3.364C597.034,642.058,597.03,645.422,599.198,645.422L599.198,645.422z"/>
							</g>
							<g>
								<path d="M585.742,667.849c2.165,0,2.168-3.364,0-3.364C583.577,664.485,583.574,667.849,585.742,667.849L585.742,667.849z"
									/>
							</g>
							<g>
								<path d="M598.638,680.745c2.165,0,2.168-3.364,0-3.364C596.473,677.381,596.469,680.745,598.638,680.745L598.638,680.745z"
									/>
							</g>
							<g>
								<path d="M608.169,662.803c2.165,0,2.168-3.364,0-3.364C606.005,659.439,606.001,662.803,608.169,662.803L608.169,662.803z"
									/>
							</g>
							<g>
								<path d="M637.325,645.422c2.165,0,2.168-3.364,0-3.364C635.16,642.058,635.157,645.422,637.325,645.422L637.325,645.422z"/>
							</g>
							<g>
								<path d="M578.453,686.352c2.165,0,2.168-3.364,0-3.364C576.288,682.988,576.285,686.352,578.453,686.352L578.453,686.352z"
									/>
							</g>
						</g>
						<g>
							<path d="M441.973,708.619c-13.86,24.643-19.637,52.652-23.28,80.415c-3.98,30.322-6.707,60.853-9.458,91.307
								c-1.487,16.467-3.105,33.126-0.316,49.549c0.362,2.13,3.69,1.634,3.327-0.509c-2.492-14.674-1.376-29.519-0.064-44.252
								c1.361-15.284,2.816-30.561,4.359-45.827c2.863-28.328,5.071-57.089,11.67-84.853c3.688-15.514,9.048-30.638,16.879-44.562
								C446.15,708.002,443.02,706.756,441.973,708.619L441.973,708.619z"/>
						</g>
						<g>
							<path d="M614.639,685.152c20.379,61.671,32.781,125.924,36.692,190.762c1.092,18.107,1.518,36.249,1.306,54.387
								c-0.025,2.166,3.339,2.167,3.364,0c0.758-64.884-6.86-129.834-22.642-192.776c-4.498-17.94-9.673-35.706-15.476-53.266
								C617.207,682.211,613.957,683.088,614.639,685.152L614.639,685.152z"/>
						</g>
						<g>
							<path d="M654.508,895.219c33.515,5.999,66.809-5.715,94.251-24.602c22.317-15.359,40.923-35.652,54.523-59.069
								c13.546-23.325,22.117-49.373,26.187-75.991c4.157-27.187,3.775-54.95-0.565-82.089c-4.957-30.996-15.14-61.642-35.438-86.1
								c-2.664-3.21-5.494-6.27-8.462-9.201c-1.143-1.128-3.376-0.002-2.812,1.637c7.692,22.322-1.987,46.382-19.769,60.902
								c-8.859,7.234-19.331,12.102-29.236,17.684c-9.623,5.423-18.418,11.759-25.785,20.052
								c-7.384,8.311-13.31,18.002-16.685,28.63c-3.881,12.221-3.574,25.038-2.034,37.63c3.302,26.989,8.636,54.003,3.405,81.151
								c-4.541,23.569-17.837,46.697-40.272,57.108c-1.962,0.91-0.255,3.811,1.698,2.905c19.406-9.006,32.478-27.56,38.879-47.534
								c8.123-25.347,5.492-52.654,1.784-78.534c-2.033-14.188-4.748-28.767-2.339-43.088c1.952-11.608,7.243-22.468,14.455-31.711
								c7.419-9.509,16.629-16.837,27.041-22.821c9.747-5.602,20.033-10.363,29.031-17.179
								c20.029-15.169,31.537-41.52,23.071-66.088c-0.937,0.546-1.874,1.091-2.811,1.637c22.859,22.569,35.117,52.795,41.255,83.858
								c5.197,26.3,6.565,53.414,3.672,80.078c-2.836,26.143-9.924,51.984-21.813,75.485
								c-11.825,23.375-28.395,44.178-48.906,60.516c-24.873,19.814-55.847,34.209-88.21,32.94c-4.44-0.174-8.848-0.665-13.22-1.448
								C653.286,891.596,652.378,894.837,654.508,895.219L654.508,895.219z"/>
						</g>
						<g>
							<path d="M750.645,630.118c4.959,4.625,4.855,11.645,3.489,17.805c-1.47,6.63-3.541,13.162-5.353,19.706
								c-0.413,1.494,1.194,2.525,2.471,1.899c17.124-8.389,24.339-26.947,30.437-43.787c-1.081,0-2.163,0-3.244,0
								c3.248,12.463,4.634,25.251,4.156,38.12c-0.029,0.783,0.551,1.373,1.235,1.622c2.344,0.853,4.208-0.671,5.68-2.378
								c2.17-2.517,4.195-5.185,6.156-7.866c4.161-5.691,7.873-11.688,11.18-17.912c-0.881,0.114-1.761,0.227-2.642,0.341
								c4.895,5.214,5.108,12.731,5.587,19.475c0.556,7.828,1.883,15.512,4.128,23.036c0.309,1.035,1.517,1.564,2.471,1.005
								c6.277-3.679,10.876-9.333,13.281-16.191c0.718-2.047-2.531-2.927-3.244-0.894c-2.112,6.024-6.235,10.957-11.735,14.181
								c0.824,0.335,1.647,0.67,2.471,1.005c-2.515-8.428-3.555-16.87-4.256-25.603c-0.533-6.643-1.594-13.354-6.325-18.392
								c-0.721-0.769-2.143-0.6-2.642,0.34c-2.519,4.742-5.266,9.355-8.282,13.798c-1.507,2.22-3.074,4.401-4.704,6.532
								c-0.855,1.118-4.419,6.939-6.231,6.279c0.412,0.541,0.823,1.081,1.235,1.622c0.489-13.154-0.957-26.278-4.276-39.015
								c-0.444-1.705-2.706-1.486-3.244,0c-5.808,16.039-12.571,33.781-28.891,41.776c0.824,0.633,1.647,1.266,2.471,1.9
								c2.128-7.688,4.953-15.509,6.025-23.43c0.846-6.253-0.238-12.888-5.027-17.354
								C751.442,626.263,749.057,628.637,750.645,630.118L750.645,630.118z"/>
						</g>
					</g>
					<g>
						<path d="M422.354,618.719c2.698-7.486,14.472-4.669,18.397-0.069c1.534,1.797,4.116-0.806,2.592-2.592
							c-5.959-6.984-20.908-8.349-24.524,1.687C418.018,619.968,421.559,620.926,422.354,618.719L422.354,618.719z"/>
					</g>
					<g>
						<path d="M598.612,601.255c3.27-8.682,13.372-2.996,17.179,1.638c1.499,1.824,4.079-0.782,2.592-2.592
							c-3.357-4.086-8.112-7.583-13.669-7.177c-4.444,0.324-8.078,3.016-9.637,7.156
							C594.244,602.49,597.787,603.445,598.612,601.255L598.612,601.255z"/>
					</g>
					<g>
						<g>
							<g>
								<path style="fill:#FFFFFF;" d="M463.797,474.585c-6.612,1.189-12.64,3.803-17.155,9.098
									c-19.073,22.366,21.557,37.103,36.934,40.099c15.2,2.962,30.821,2.676,46.304,2.379c10.101-0.194,20.257-0.393,30.188-2.254
									c6.365-1.193,12.77-3.15,17.855-7.16c11.66-9.194,15.625-29.595,0.233-37.01c-6.436-3.1-13.827-3.337-20.969-3.516
									c-20.263-0.507-40.525-1.015-60.788-1.522C486.619,474.455,474.451,472.669,463.797,474.585z"/>
								<g>
									<path d="M463.31,472.818c-15.211,3.362-31.461,18.773-18.714,33.888c11.726,13.904,34.339,19.078,51.499,20.674
										c17.276,1.607,35.425,1.331,52.721-0.159c11.165-0.962,23.802-2.728,32.273-10.808
										c13.421-12.801,11.603-34.905-7.447-40.228c-17.16-4.794-37.892-2.331-55.534-2.772
										C500.111,472.961,481.172,470.295,463.31,472.818c-2.326,0.328-1.337,3.861,0.974,3.535
										c14.776-2.086,30.274,0.135,45.14,0.507c15.197,0.38,30.395,0.736,45.591,1.141c14.912,0.397,35.883,3.826,30.566,23.871
										c-4.408,16.62-21.89,20.305-36.766,21.682c-24.308,2.252-52.108,3.312-75.505-4.436
										c-8.624-2.856-18.337-6.83-24.754-13.526c-12.507-13.052,2.232-26.257,15.727-29.24
										C466.587,475.843,465.612,472.309,463.31,472.818z"/>
								</g>
							</g>
							<g>
								<path style="fill:#9F4641;" d="M504.664,357.655c-12.437,36.245-24.875,72.49-37.312,108.735
									c-3.071,8.949-6.172,18.056-6.537,27.51c35.723,8.619,73.591,8.196,109.112-1.218c1.547-0.41,3.246-0.953,4.039-2.343
									c0.89-1.559,0.277-3.511-0.36-5.189c-18.209-48.018-42.175-93.61-66.078-139.062L504.664,357.655z"/>
								<g>
									<path d="M502.897,357.168c-8.061,23.492-16.123,46.984-24.184,70.477c-7.302,21.278-17.961,43.659-19.731,66.256
										c-0.06,0.766,0.609,1.597,1.346,1.767c24.094,5.575,48.805,7.564,73.462,5.262c11.772-1.098,25.618-2.037,36.625-6.48
										c4.438-1.791,6.133-3.515,5.336-8.467c-1.74-10.816-8.745-22.5-13.12-32.587c-5.245-12.091-10.791-24.051-16.527-35.917
										c-11.785-24.38-24.39-48.351-36.992-72.316c-0.732-1.391-2.978-1.062-3.35,0.438
										C504.807,349.457,503.852,353.312,502.897,357.168c-0.567,2.29,2.967,3.267,3.535,0.975
										c0.955-3.856,1.91-7.711,2.865-11.567c-1.117,0.146-2.233,0.292-3.35,0.438c15.184,28.875,30.377,57.767,44.128,87.36
										c3.507,7.548,6.922,15.138,10.213,22.783c3.122,7.251,8.691,16.717,10.063,24.593c1.114,6.393,0.971,7.774-4.867,10.175
										c-3.41,1.402-8.358,1.908-11.971,2.583c-9.204,1.72-18.518,2.831-27.865,3.368c-16.814,0.966-33.759,0.022-50.353-2.855
										c-5.466-0.947-8.755-0.267-10.904-5.311c-1.634-3.834-0.053-7.467,0.982-11.224c2.204-8.008,5.199-15.838,7.893-23.69
										c11.056-32.218,22.111-64.436,33.166-96.653C507.199,355.906,503.66,354.946,502.897,357.168z"/>
								</g>
							</g>
							<g>
								<path style="fill:#C9A763;" d="M544.445,328.786c-1.803-4.51-4.72-8.683-8.787-11.337
									c-6.366-4.155-15.299-3.914-21.432,0.578c-0.585-7.677-7.468-14.238-15.142-14.879c-7.673-0.641-15.352,4.384-18.254,11.515
									c-2.902,7.132-1.089,15.818,4.088,21.517c-3.54-0.8-7.287,1.379-9.126,4.508c-1.839,3.129-2.059,6.977-1.542,10.57
									c0.972,6.744,4.761,13.389,10.925,16.294c5.104,2.406,11.752,1.445,15.689-2.372c2.896,4.476,8.414,6.92,13.746,6.713
									c5.377-0.209,10.48-2.865,14.303-6.651c1.629-1.614,3.097-3.52,3.575-5.764c0.477-2.243-0.266-4.867-2.231-6.049
									c5.681,1.527,11.892-2.193,14.432-7.499C547.228,340.625,546.629,334.249,544.445,328.786z"/>
								<g>
									<path d="M501.381,361.554c-5.816,8.517-15.779,6.09-21.191-0.754c-3.911-4.946-9.56-23.18,4.728-22.786
										c1.27,0.035,2.446-1.635,1.582-2.758c-6.454-8.391-7.487-21.144,2.593-27.682c9.579-6.213,21.449,0.228,23.365,10.94
										c0.21,1.176,1.751,1.658,2.692,1.095c9.064-5.419,20.275-3.376,25.754,6.187c2.217,3.869,2.891,7.153,3.028,11.6
										c0.221,7.114-5.905,15.131-13.677,14.201c-1.656-0.198-2.31,2.091-1.296,3.129c-0.448,3.074-0.896,6.147-1.344,9.221
										c-2.407,2.713-5.369,4.337-8.887,4.872c-6.577,1.58-12.085,0.537-16.649-5.04c-1.495-1.827-4.075,0.78-2.592,2.592
										c6.869,8.393,17.604,9.316,26.561,3.476c6.189-4.035,11.678-11.39,5.503-17.713c-0.432,1.043-0.864,2.086-1.296,3.129
										c15.546,1.862,20.72-14.958,15.864-27.182c-5.474-13.78-19.97-19.318-32.82-11.636c0.898,0.365,1.795,0.73,2.693,1.095
										c-2.179-12.18-14.519-19.723-26.216-14.493c-13.858,6.196-14.915,23.041-6.442,34.059c0.527-0.919,1.055-1.839,1.583-2.758
										c-15.422-0.424-14.687,19.359-7.907,28.621c6.993,9.552,20.699,10.447,27.535,0.435
										C505.88,361.451,502.705,359.615,501.381,361.554L501.381,361.554z"/>
								</g>
							</g>
						</g>
						<g>
							<g>
								<path d="M474.364,511.737c3.538,0,3.544-5.498,0-5.498C470.826,506.238,470.82,511.737,474.364,511.737L474.364,511.737z"/>
							</g>
							<g>
								<path d="M504.912,516.014c3.538,0,3.544-5.499,0-5.499C501.374,510.515,501.368,516.014,504.912,516.014L504.912,516.014z"
									/>
							</g>
							<g>
								<path d="M542.181,509.293c-0.204,0-0.407,0-0.611,0c-0.705,0-1.445,0.307-1.944,0.805c-0.477,0.477-0.836,1.259-0.805,1.944
									c0.032,0.711,0.265,1.448,0.805,1.944c0.538,0.494,1.199,0.805,1.944,0.805c0.204,0,0.407,0,0.611,0
									c0.705,0,1.445-0.307,1.944-0.805c0.477-0.477,0.836-1.259,0.805-1.944c-0.032-0.711-0.266-1.448-0.805-1.944
									C543.587,509.604,542.926,509.293,542.181,509.293L542.181,509.293z"/>
							</g>
							<g>
								<path d="M569.674,508.682c3.538,0,3.544-5.499,0-5.499C566.136,503.183,566.13,508.682,569.674,508.682L569.674,508.682z"/>
							</g>
						</g>
					</g>
					<g>
						<g>
							<path style="fill:#9F4641;" d="M424.548,694.114c-9.314,13.007-13.954,29.29-12.896,45.253
								c0.249,3.765,0.833,7.596,2.605,10.927c2.818,5.294,8.26,8.649,13.733,11.1c11.294,5.058,23.624,7.311,35.869,9.081
								c26.214,3.79,52.697,5.481,79.179,5.053c19.612-0.317,39.681-1.701,57.881-9.102c17.513-7.122,33.258-20.598,39.127-38.57
								c5.869-17.972-0.365-40.287-16.826-49.587l-46.392,33.461l-58.146,31.494l-45.035-15.091
								c-2.378-0.797-4.621-1.948-6.655-3.414L424.548,694.114z"/>
							<g>
								<path d="M422.965,693.188c-9.115,13.493-14.489,29.745-13.146,46.179c1.117,13.671,8.849,20.386,21.102,25.23
									c16.865,6.667,35.772,8.441,53.684,10.266c21.354,2.176,42.872,3.01,64.329,2.36c30.856-0.935,65.22-6.721,84.763-33.293
									c15.466-21.028,13.773-52.64-9.552-67.245c-0.511-0.32-1.344-0.365-1.85,0c-13.048,9.411-26.095,18.822-39.143,28.232
									c-9.961,7.185-20.793,12.564-31.602,18.419c-8.692,4.708-17.384,9.415-26.075,14.123c-2.084,1.129-4.692,3.202-7.007,3.795
									c-1.611,0.413,1.054,0.102,0.404,0.1c-0.871-0.003-2.254-0.673-3.058-1.025c-15.424-6.753-33.967-8.3-48.274-17.468
									c-14.487-9.283-28.106-20.266-42.066-30.332c-1.916-1.382-3.748,1.797-1.85,3.165c18.357,13.236,36.119,29.708,57.76,36.959
									c7.76,2.6,15.519,5.2,23.279,7.8c3.624,1.214,9.684,4.745,13.534,4.535c2.181-0.119,4.155-1.67,6.077-2.711
									c6.875-3.724,13.751-7.448,20.626-11.172c10.848-5.876,22.332-11.181,32.774-17.752
									c9.242-5.815,17.891-12.889,26.745-19.275c5.198-3.749,11.017-9.652,16.91-12.196c3.602-1.556,0.699-1.42,3.482-0.459
									c6.953,2.401,12.114,14.226,13.862,20.3c9.539,33.144-20.617,58.724-49.365,66.692
									c-35.412,9.815-76.978,6.154-113.011,1.864c-16.947-2.018-37.962-3.728-52.746-13.26
									c-20.162-12.999-7.882-46.493,2.582-61.982C427.454,693.078,424.28,691.242,422.965,693.188z"/>
							</g>
						</g>
					</g>
					<g>
						<g>
							<path style="fill:#9F4641;" d="M446.2,768.719c-8.27,27.978-24.284,53.625-45.794,73.336
								c-1.466,1.343-3.099,3.294-2.209,5.073c0.369,0.737,1.099,1.213,1.796,1.653c14.743,9.308,29.486,18.615,44.229,27.923
								c35.872-20.71,60.492-59.744,63.73-101.037l-31.121-1.806L446.2,768.719z"/>
							<g>
								<path d="M444.432,768.231c-8.607,27.975-23.829,50.508-44.045,71.33c-4.929,5.077-5.323,7.798,0.524,11.965
									c13.534,9.645,28.331,17.886,42.387,26.76c0.546,0.344,1.303,0.326,1.85,0c36.698-21.858,60.722-60.108,64.638-102.62
									c0.095-1.027-0.918-1.78-1.833-1.833c-21.146-1.227-40.373-3.375-61.266-6.882c-2.307-0.387-3.299,3.144-0.975,3.535
									c12.208,2.049,24.432,4.819,36.801,5.536c4.692,0.272,9.384,0.545,14.076,0.817c1.842,0.107,9.81-0.661,11.176,0.649
									c-1.529-1.466-3.028,9.175-3.302,10.637c-0.8,4.277-1.832,8.512-3.072,12.683c-2.438,8.198-5.71,16.141-9.728,23.692
									c-7.607,14.294-17.839,27.142-30.122,37.697c-3.72,3.196-8.099,7.502-12.675,9.503c-5.635,2.465-7.824,0.828-12.933-2.397
									c-8.95-5.65-19.521-10.688-27.643-17.452c-2.801-0.843-4.513-2.648-5.137-5.414c-2.293-2.337-1.926-4.164,1.104-5.481
									c2.058-3.586,6.899-6.949,9.674-10.117c4.713-5.38,9.086-11.078,13.067-17.02c9.225-13.767,16.103-28.796,20.969-44.615
									C448.663,766.946,445.125,765.98,444.432,768.231z"/>
							</g>
						</g>
						<g>
							<path d="M393.326,865.502c5.814-1.381,10.712-5.287,13.293-10.685c1.013-2.118-2.147-3.98-3.165-1.85
								c-2.202,4.605-6.129,7.819-11.102,9C390.057,862.512,391.028,866.047,393.326,865.502L393.326,865.502z"/>
						</g>
						<g>
							<path d="M404.931,874.031c6.35-1.909,11.233-6.695,13.32-12.98c0.745-2.244-2.793-3.206-3.535-0.975
								c-1.676,5.044-5.677,8.891-10.76,10.419C401.704,871.173,402.664,874.712,404.931,874.031L404.931,874.031z"/>
						</g>
						<g>
							<path d="M420.001,883.501c4.766-4.739,8.176-10.44,10.121-16.872c0.684-2.263-2.853-3.23-3.535-0.974
								c-1.768,5.847-4.847,10.948-9.178,15.255C415.733,882.574,418.325,885.166,420.001,883.501L420.001,883.501z"/>
						</g>
						<g>
							<path d="M429.719,887.119c4.999-3.159,8.649-7.651,10.815-13.141c0.866-2.195-2.678-3.147-3.535-0.975
								c-1.8,4.561-4.995,8.338-9.131,10.951C425.879,885.211,427.716,888.385,429.719,887.119L429.719,887.119z"/>
						</g>
						<g>
							<path d="M434.443,801.251c6.849-2.35,18.414-9.117,25.328-4.426c3.679,2.496,5.496,10.511,10.238,11.471
								c3.177,0.644,6.782-3.037,9.492-3.837c10.619-3.133,12.632,3.229,16.47,12.036c0.94,2.157,4.099,0.293,3.165-1.85
								c-1.944-4.461-5.463-15.342-10.695-17.164c-4.903-1.707-9.701,5.234-14.236,5.476c-9.212,0.492-9.225-10.364-16.632-12.226
								c-6.85-1.722-17.754,4.806-24.104,6.985C431.25,798.478,432.203,802.02,434.443,801.251L434.443,801.251z"/>
						</g>
						<g>
							<path d="M419.086,824.972c5.055-1.281,18.464-7.635,23.07-5.805c6.369,2.531,6.676,14.654,11.446,19.35
								c2.231,2.196,1.553,1.637,4.992,1.732c2.227,0.062,5.181-2.251,7.31-2.695c8.427-1.757,10.474-0.433,13.526,7.139
								c0.871,2.16,4.418,1.217,3.535-0.974c-1.876-4.654-2.879-13.5-9.259-13.508c-6.121-0.008-8.845,7.034-15.874,3.879
								c-6.098-2.737-9.689-13.805-12.75-19.683c-0.343-0.659-1.348-1.117-2.07-0.842c-8.174,3.117-16.42,5.724-24.899,7.873
								C415.826,822.017,416.795,825.553,419.086,824.972L419.086,824.972z"/>
						</g>
					</g>
				</g>
				<path style="fill:#578886;" d="M472.224,827.727c-3.718,0.087-7.176,2.115-10.892,2.251c-3.713,0.136-7.434-1.792-9.466-4.902
					c-1.591-2.435-2.134-5.384-3.167-8.102c-1.033-2.719-2.863-5.459-5.685-6.161c-2.91-0.724-5.816,0.922-8.469,2.321
					c-2.653,1.398-5.946,2.59-8.53,1.069c1.917-3.042,3.835-6.084,5.752-9.126c0.37-0.587,0.748-1.183,1.276-1.632
					c0.552-0.469,1.234-0.749,1.907-1.016c5.213-2.064,10.696-3.736,16.302-3.678c3.984,0.042,8.478,1.37,10.165,4.979
					c0.5,1.069,0.707,2.257,1.217,3.321c1.243,2.595,4.168,4.08,7.04,4.273c2.871,0.192,5.704-0.713,8.352-1.839
					c1.794-0.763,3.632-1.65,5.58-1.57c2.431,0.101,4.589,1.739,5.941,3.763c1.352,2.023,2.034,4.408,2.697,6.749
					c0.323,1.141,0.649,2.314,0.539,3.495c-0.128,1.371-0.829,2.614-1.522,3.804c-1.692,2.905-5.081,12.365-8.908,8.815
					C478.972,831.406,477.85,827.596,472.224,827.727z"/>
			</g>
		</g>
	</g>
</g>
</svg>
