<?xml version="1.0" encoding="UTF-8"?>
<svg id="Layer_2" data-name="Layer 2" xmlns="http://www.w3.org/2000/svg" viewBox="0 0 222.76 222.76">
  <defs>
    <style>
      .cls-1 {
        fill: #f4a4a4;
      }

      .cls-1, .cls-2, .cls-3, .cls-4, .cls-5, .cls-6, .cls-7, .cls-8, .cls-9, .cls-10, .cls-11, .cls-12 {
        stroke-width: 0px;
      }

      .cls-2 {
        fill: #a42b66;
      }

      .cls-3 {
        fill: #d88787;
      }

      .cls-4 {
        fill: #c5e4f7;
      }

      .cls-5 {
        fill: #3d1749;
      }

      .cls-6 {
        fill: #4d1f5a;
      }

      .cls-7 {
        fill: #4e1f56;
      }

      .cls-8 {
        fill: #f6b9b6;
      }

      .cls-9 {
        fill: #91205c;
      }

      .cls-10 {
        fill: #be3f82;
      }

      .cls-11 {
        fill: #e17f8e;
      }

      .cls-12 {
        fill: #3c1644;
      }
    </style>
  </defs>
  <g id="OBJECTS">
    <g>
      <g>
        <path class="cls-4" d="M222.76,111.37c0,25-8.23,48.07-22.12,66.65-1.26,1.68-2.56,3.33-3.92,4.93-.75.91-1.53,1.81-2.32,2.69-.7.78-1.42,1.56-2.14,2.32-20.3,21.43-49.02,34.79-80.87,34.79s-60.57-13.36-80.87-34.78t0-.01l-.06-.06c-1.53-1.61-3.01-3.26-4.43-4.96-1.35-1.6-2.64-3.25-3.9-4.93C8.23,159.44,0,136.37,0,111.37,0,49.86,49.86,0,111.39,0s111.37,49.86,111.37,111.37Z"/>
        <path class="cls-2" d="M192.28,187.91s0,.02-.03.06l-.02.02c-.2.21-.4.43-.61.63-.38.41-.76.81-1.18,1.22-.26.26-.53.53-.81.79-.4.41-.81.79-1.21,1.18-.27.27-.55.53-.84.79-.4.38-.81.76-1.22,1.14-6.55,5.97-13.81,11.16-21.65,15.43-2.52,1.37-5.1,2.66-7.72,3.83-11.69,5.27-24.45,8.56-37.86,9.48-2.56.18-5.14.27-7.75.27s-5.22-.09-7.8-.27c-12.7-.87-24.81-3.88-35.98-8.66-.63-.27-1.25-.53-1.86-.82-10.81-4.85-20.7-11.4-29.35-19.28-.41-.37-.82-.75-1.24-1.14-.27-.24-.56-.52-.82-.78-.41-.38-.82-.78-1.21-1.18-.27-.26-.55-.53-.82-.79-.38-.41-.79-.81-1.18-1.22-.21-.21-.41-.43-.61-.64h-.02s-.03-.06-.03-.06l11.22-15.89c2.79-3.95,6.79-6.84,11.4-8.24.03-.03.08-.03.11-.05,2.11-.64,4.63-1.37,7.42-2.14,4.92-1.39,10.72-2.9,16.82-4.3,11.45-2.61,24-4.81,33.92-4.82h.05c9.92.02,22.47,2.21,33.9,4.82,6.12,1.4,11.92,2.93,16.84,4.3,2.79.78,5.28,1.5,7.4,2.14.03.02.08.03.12.05,2.59.79,4.99,2.05,7.08,3.71.46.35.9.73,1.33,1.11,1.1,1.02,2.09,2.17,2.98,3.42l11.22,15.89Z"/>
        <g>
          <path class="cls-12" d="M119.14,222.49c-2.56.18-5.14.27-7.75.27s-5.22-.09-7.8-.27l3.77-25.14h7.92l3.86,25.14Z"/>
          <path class="cls-12" d="M116.36,196.79h-9.49c-.8,0-1.48-.56-1.6-1.33l-1.43-8.91c-.15-.95.61-1.81,1.6-1.81h12.36c.99,0,1.75.86,1.6,1.81l-1.43,8.91c-.12.76-.8,1.33-1.6,1.33Z"/>
          <path class="cls-12" d="M115.12,195.7h-7.47c-.64,0-1.15.55-1.15,1.23v.82c0,.68.52,1.23,1.15,1.23h7.47c.64,0,1.15-.55,1.15-1.23v-.82c0-.68-.52-1.23-1.15-1.23Z"/>
        </g>
        <g>
          <path class="cls-1" d="M138.42,160.36v-36.31h-54.09v36.31s0,.04,0,.07c0,14.94,12.11,27.04,27.04,27.04s27.04-12.11,27.04-27.04c0-.02,0-.05,0-.07Z"/>
          <path class="cls-11" d="M134.45,124.05h-50.11v9.84c6.15,11.05,14.61,15.85,24.37,17.45,4.05.67,9.6.95,14.81,1.06,6.08.12,10.94,5.11,10.94,11.19h0c0,7.66-3.19,14.58-8.3,19.49,7.39-4.83,12.27-13.18,12.27-22.66v-36.38h-3.97Z"/>
        </g>
        <g>
          <g>
            <g>
              <ellipse class="cls-1" cx="69.99" cy="103.76" rx="15.39" ry="16.38"/>
              <path class="cls-11" d="M69.99,115.11c-5.72,0-10.37-5.09-10.37-11.35s4.65-11.35,10.37-11.35,10.37,5.09,10.37,11.35-4.65,11.35-10.37,11.35Z"/>
            </g>
            <g>
              <ellipse class="cls-1" cx="152.76" cy="103.76" rx="15.39" ry="16.38"/>
              <path class="cls-11" d="M152.76,115.11c-5.72,0-10.37-5.09-10.37-11.35s4.65-11.35,10.37-11.35,10.37,5.09,10.37,11.35-4.65,11.35-10.37,11.35Z"/>
            </g>
          </g>
          <path class="cls-8" d="M128.54,38.5c13.45,0,24.35,10.9,24.35,24.35v35.74h-.06c-.49,20.27-7.14,28.89-17.14,37.81-6.84,6.1-15.24,10.78-24.33,10.78s-17.58-4.71-24.43-10.87c-9.94-8.94-16.55-17.52-17.04-37.72-.02-.81-.03-1.65-.03-2.49v-33.25c0-13.45,10.9-24.35,24.35-24.35h34.33Z"/>
          <g>
            <path class="cls-11" d="M127.39,106.12s.03-.07.1-.19c.07-.12.15-.31.3-.53.28-.45.71-1.08,1.36-1.72.64-.65,1.51-1.32,2.56-1.82,1.04-.52,2.27-.83,3.51-.93.31,0,.62-.03.94-.01.29,0,.6.03.92.06.61.07,1.2.21,1.75.38,1.11.36,2.07.89,2.79,1.45.74.55,1.24,1.13,1.57,1.53.17.2.28.38.36.49.08.12.12.18.12.18,0,0-.23-.19-.63-.53-.39-.33-1-.76-1.75-1.18-.76-.43-1.68-.82-2.72-1.08-.52-.13-1.06-.2-1.61-.27-.27-.02-.54-.04-.84-.04-.27,0-.56.02-.84.03-.56.04-1.12.11-1.66.25-.54.14-1.07.28-1.56.49-.99.39-1.85.92-2.54,1.44-.69.53-1.24,1.02-1.58,1.4-.35.38-.55.6-.55.6Z"/>
            <path class="cls-11" d="M95.61,106.12s-.2-.22-.55-.6c-.34-.38-.89-.88-1.58-1.4-.69-.52-1.55-1.05-2.54-1.44-.49-.21-1.02-.36-1.56-.49-.54-.13-1.1-.21-1.66-.25-.28-.01-.57-.04-.84-.03-.3,0-.58.02-.84.04-.55.06-1.1.14-1.61.27-1.03.26-1.96.65-2.72,1.08-.75.43-1.36.85-1.75,1.18-.4.34-.63.53-.63.53,0,0,.04-.06.12-.18.08-.11.19-.29.36-.49.34-.4.84-.98,1.57-1.53.73-.56,1.68-1.09,2.79-1.45.56-.17,1.14-.31,1.75-.38.31-.03.63-.06.92-.06.32-.02.62,0,.94.01,1.24.1,2.47.41,3.51.93,1.05.5,1.92,1.17,2.56,1.82.65.65,1.08,1.28,1.36,1.72.15.22.23.41.3.53.07.12.1.19.1.19Z"/>
          </g>
        </g>
        <g>
          <path class="cls-7" d="M65,88.37c-.08-1.82.33-3.51.31-5.26-.03-2.28-1.2-4.63-1.83-6.79-2.05-7.01-1.57-14.73,1.32-21.43.72-1.66,1.57-3.25,2.58-4.75,1.15-1.7,2.61-3.34,4.58-3.89-2.18-1.8-3.87-4.18-4.87-6.83,1.6,1.73,3.77,2.93,6.09,3.38-2.74-1.36-3.73-4.77-3.89-7.82-.4-7.57,2.67-15.25,8.18-20.45-1.04,3.13.04,6.84,3.01,8.51-2.58-3.88-2.51-9.35.18-13.16-.37.53.52,2.7.82,3.31.59,1.17,1.53,2.25,2.44,3.19,1.84,1.89,4.1,3.36,6.55,4.34,3.96,1.58,8.36,1.9,12.58,1.28,3.29-.48,6.49-1.52,9.8-1.92,1.26-.15,2.54-.2,3.81-.2,4.35.02,8.75.8,12.65,2.73,5.6,2.77,10.97,8.72,10.19,15.35.36-3.01.69-6.19-.52-8.97,1.94,2.33,2.98,5.06,3.2,8.1.02.33.22,4.37.25,4.37.29,0,.55,0,.84-.01,2.18-.14,4.34.17,6.44.83,1.33.42,3.01.98,4.06,1.94-1.61-.09-3.21-.17-4.82-.26,9.21,3.22,11.62,15.19,9.82,23.65-.5,2.37-1.35,4.6-1.54,7.04-.25,3.25.23,3.9.33,7.14.01.38-4.67,1.88-4.96,1.88v-9.68c0-15.41-12.33-27.9-27.54-27.9h-27.32c-8.38,0-16.43,3.96-21.62,10.62-3.39,4.35-5.18,9.66-5.75,15.14-.26,2.47-.14,4.96.04,7.44.08,1.12.22,2.24.3,3.36.07,1.01-.39,2.16-.51,3.18-.21,1.84-.28,3.68-.36,5.53-.07,1.45-1.28,2.04-2.34,2.87-.36.28-2.27,1.44-2.25,1.96-.05-2.63-.12-5.22-.23-7.81Z"/>
          <g>
            <path class="cls-7" d="M65.23,81.79h4.96v21.97h-3.12c-1.02,0-1.84-.83-1.84-1.84v-20.13h0Z"/>
            <path class="cls-7" d="M154.43,81.79h3.12v21.97h-4.96v-20.13c0-1.02.83-1.84,1.84-1.84Z" transform="translate(310.13 185.54) rotate(180)"/>
          </g>
          <path class="cls-7" d="M134.64,62.84c-.03-.45-.05-.92-.08-1.39l-49.38.02c.11,2.71.22,5.45-.24,8.13s-1.52,5.33-3.46,7.23c-.73.72-1.57,1.32-2.38,1.95-5.54,4.37-8.59,10.68-8.93,17.77.07-1.4-1.56-3.37-2.01-4.7-.67-1.98-.96-4.29-1.27-6.35-.69-4.62-.9-9.32-.62-13.98.16-2.56.81-4.56,1.62-6.93.7-2.04.64-4.31,1.33-6.43,1.28-3.9,3.64-7.33,6.67-10.04,9.23-8.23,22.96-9.71,34.72-9.71,45.74,0,46.05,29.82,46.05,29.82-.52,3.46-1.04,6.91-1.56,10.37,0,1.36-.53,2.83-.72,4.19-.21,1.5-.2,2.92,0,4.42.12.97.43,1.98.21,2.95,0,.75-.32,1.57-.7,2.33-.28.54-.59,1.06-.84,1.49.23-.4-.6-2.4-.73-2.87-.27-.95-.57-1.89-.82-2.84-.69-2.65-1.58-5.16-3.14-7.43-2.73-3.98-7.8-5.39-10.87-9.07-2.33-2.79-2.65-5.65-2.84-8.95Z"/>
        </g>
        <path class="cls-3" d="M116.22,112.01l-1.68,2.07c-1.74,2.14-4.57,2.14-6.32,0l-1.68-2.07c-.49-.6-.14-1.62.55-1.62h8.59c.69,0,1.03,1.02.55,1.62Z"/>
        <g>
          <path class="cls-6" d="M133.2,96.56c0,3.63-2.06,6.58-4.61,6.58s-4.61-2.95-4.61-6.58,2.06-6.58,4.61-6.58,4.61,2.95,4.61,6.58Z"/>
          <path class="cls-5" d="M128.59,101.13c-1.23,0-2.6-1.95-2.6-4.57s1.37-4.57,2.6-4.57,2.6,1.95,2.6,4.57-1.37,4.57-2.6,4.57Z"/>
        </g>
        <g>
          <path class="cls-6" d="M89.57,96.56c0,3.63,2.06,6.58,4.61,6.58s4.61-2.95,4.61-6.58-2.06-6.58-4.61-6.58-4.61,2.95-4.61,6.58Z"/>
          <path class="cls-5" d="M94.18,101.13c-1.23,0-2.6-1.95-2.6-4.57s1.37-4.57,2.6-4.57,2.6,1.95,2.6,4.57-1.37,4.57-2.6,4.57Z"/>
        </g>
        <path class="cls-7" d="M97.74,81.81c-2.76-.33-5.6-.09-8.22.65-1.32.37-2.61.88-3.87,1.41-1.12.47-3.51,1.83-3.51,3.37,0,.81,2.04-.6,2.53-.8,2.13-.9,4.38-1.6,6.69-1.84,2.44-.25,4.63.18,6.9,1.04,1.31.49,2.55,1.36,3.9,1.68.76.19,1.79,0,2.34-.6.37-.4.37-.93.32-1.45-.06-.66-.36-1.29-.75-1.82-.16-.22-.34-.43-.53-.63-.01.24,0,.49.05.73-.05-.24-.51-.31-.68-.38-1.63-.7-3.38-1.15-5.17-1.36Z"/>
        <path class="cls-7" d="M124.34,81.81c2.76-.33,5.6-.09,8.22.65,1.32.37,2.61.88,3.87,1.41,1.12.47,3.51,1.83,3.51,3.37,0,.81-2.04-.6-2.53-.8-2.13-.9-4.38-1.6-6.69-1.84-2.44-.25-4.63.18-6.9,1.04-1.31.49-2.55,1.36-3.9,1.68-.76.19-1.79,0-2.34-.6-.37-.4-.37-.93-.32-1.45.06-.66.36-1.29.75-1.82.16-.22.34-.43.53-.63.01.24,0,.49-.05.73.05-.24.51-.31.68-.38,1.63-.7,3.38-1.15,5.17-1.36Z"/>
        <path class="cls-11" d="M110.4,127.88c-7.99,0-13.4-3.67-13.48-3.73-.45-.32-.57-.94-.25-1.4.32-.45.94-.57,1.4-.25.49.34,12.15,8.19,26.65-1.06.47-.3,1.09-.16,1.39.31.3.47.16,1.09-.31,1.39-5.63,3.58-10.92,4.74-15.4,4.74Z"/>
      </g>
      <g>
        <path class="cls-10" d="M84.33,155.79l27.04,31.68s-18.24,2.99-24.09,22.62c0,0-4.96-36.67-17.78-50.89l4.68-13.47c.26-.75.83-1.36,1.56-1.68l8.58-3.7v15.44Z"/>
        <path class="cls-9" d="M84.33,155.79l-6.59-7.9c-.57-.69-.34-1.74.47-2.11l6.12-2.84v12.86Z"/>
      </g>
      <g>
        <path class="cls-10" d="M138.43,155.79l-27.04,31.68s18.24,2.99,24.09,22.62c0,0,5.6-43.87,17.78-50.89l-4.68-13.47c-.26-.75-.83-1.36-1.56-1.68l-8.58-3.7v15.44Z"/>
        <path class="cls-9" d="M138.43,155.79l6.59-7.9c.57-.69.34-1.74-.47-2.11l-6.12-2.84v12.86Z"/>
      </g>
    </g>
  </g>
</svg>
